<svg width="74" height="26" viewBox="0 0 74 26" fill="none" xmlns="http://www.w3.org/2000/svg">
<path d="M10.384 1.432C9.65867 1.19733 8.76267 1.08 7.696 1.08C6.62933 1.08 5.73333 1.19733 5.008 1.432C4.28267 1.64533 3.61067 2.06133 2.992 2.68C2.39467 3.27733 1.94667 4.16267 1.648 5.336C1.34933 6.488 1.2 7.94933 1.2 9.72C1.2 11.4907 1.34933 12.9627 1.648 14.136C1.94667 15.288 2.39467 16.1733 2.992 16.792C3.61067 17.3893 4.28267 17.8053 5.008 18.04C5.73333 18.2533 6.62933 18.36 7.696 18.36C8.76267 18.36 9.65867 18.2533 10.384 18.04C11.1093 17.8053 11.7707 17.3893 12.368 16.792C12.9867 16.1733 13.4453 15.288 13.744 14.136C14.0427 12.9627 14.192 11.4907 14.192 9.72C14.192 7.94933 14.0427 6.488 13.744 5.336C13.4453 4.16267 12.9867 3.27733 12.368 2.68C11.7707 2.06133 11.1093 1.64533 10.384 1.432ZM13.424 17.048C12.272 18.5627 10.3627 19.32 7.696 19.32C5.02933 19.32 3.12 18.5627 1.968 17.048C0.816 15.5333 0.24 13.0907 0.24 9.72C0.24 6.34933 0.816 3.90667 1.968 2.392C3.12 0.877332 5.02933 0.119999 7.696 0.119999C10.3627 0.119999 12.272 0.877332 13.424 2.392C14.576 3.90667 15.152 6.34933 15.152 9.72C15.152 13.0907 14.576 15.5333 13.424 17.048ZM21.0863 0.439999V9.72C21.0863 12.8987 21.5876 15.1387 22.5903 16.44C23.6143 17.72 25.0116 18.36 26.7823 18.36C28.5529 18.36 29.9396 17.72 30.9423 16.44C31.9663 15.1387 32.4783 12.8987 32.4783 9.72V0.439999H33.4383V9.72C33.4383 16.12 31.2196 19.32 26.7823 19.32C22.3449 19.32 20.1263 16.12 20.1263 9.72V0.439999H21.0863ZM39.1963 0.439999H40.1562V19H39.1963V0.439999ZM43.6675 20.248C44.2435 23.0427 45.8968 24.44 48.6275 24.44C50.3982 24.44 51.5715 23.9387 52.1475 22.936C52.7235 21.9547 53.0115 20.5147 53.0115 18.616V0.439999H53.9715V18.616C53.9715 19.2133 53.9608 19.6933 53.9395 20.056C53.9182 20.4187 53.8648 20.9093 53.7795 21.528C53.6942 22.1467 53.5342 22.6373 53.2995 23C53.0648 23.384 52.7555 23.7787 52.3715 24.184C52.0088 24.6107 51.5075 24.92 50.8675 25.112C50.2275 25.304 49.4808 25.4 48.6275 25.4C45.2782 25.4 43.2408 23.6827 42.5155 20.248H43.6675ZM61.736 18.04H72.168L65.608 2.584L58.632 19H57.608L65.608 0.119999L73.608 19H61.736V18.04Z" fill="white"/>
</svg>
