<?xml version="1.0" encoding="utf-8"?>
<!-- Generator: Adobe Illustrator 22.1.0, SVG Export Plug-In . SVG Version: 6.00 Build 0)  -->
<svg version="1.1" id="Слой_1" xmlns="http://www.w3.org/2000/svg" xmlns:xlink="http://www.w3.org/1999/xlink" x="0px" y="0px"
	 viewBox="0 0 151.7 150.8" style="enable-background:new 0 0 151.7 150.8;" xml:space="preserve">
<style type="text/css">
	.st0{fill:#64B9FF;}
	.st1{fill:#FFFFFF;stroke:#64B9FF;stroke-width:4;stroke-miterlimit:10;}
	.st2{fill:#FFFFFF;}
	.st3{fill:none;stroke:#64B9FF;stroke-width:2;stroke-miterlimit:10;}
	.st4{display:none;fill:#64B9FF;}
	.st5{fill:none;stroke:#FFFFFF;stroke-width:2;stroke-miterlimit:10;}
	.st6{display:none;}
	.st7{display:inline;fill:#64B9FF;}
	.st8{display:none;fill:#FFFFFF;stroke:#64B9FF;stroke-width:4;stroke-miterlimit:10;}
	.st9{fill:none;stroke:#000000;stroke-width:0.75;stroke-miterlimit:10;}
</style>
<g>
	<line class="st2" x1="30.4" y1="132.3" x2="121.3" y2="131.7"/>
</g>
<g>
	<g>
		<path class="st2" d="M119.5,133.6L32.2,134c-1,0-1.8-0.8-1.8-1.8v0c0-1,0.8-1.8,1.8-1.8l87.3-0.3c1,0,1.8,0.8,1.8,1.8v0
			C121.3,132.8,120.5,133.6,119.5,133.6z"/>
	</g>
	<path class="st2" d="M47,117.4c-0.8-0.7-0.8-1.9-0.1-2.7c0,0,0.1-0.1,0.1-0.1c0.5-0.5,1-1,1.5-1.5c0.5-0.5,1-1,1.6-1.4l1.6-1.4
		c2.2-1.8,4.7-3.3,7.3-4.5c2.5-1.3,5.3-2.2,8.1-2.8c0,0,0.1,0,0.1,0c1.4-0.2,2.8-0.6,4.2-0.6l2.1-0.2c0.1,0,0.1,0,0.2,0l2.1,0
		c5.8,0.2,11.4,1.8,16.5,4.4c2.5,1.3,5,2.8,7.2,4.4c1.1,0.8,2.2,1.7,3.3,2.7c0.6,0.5,1.1,1,1.7,1.6c0.8,0.8,0.7,2.1-0.1,2.8l0,0
		c-0.7,0.6-1.8,0.6-2.5,0c-1.4-1.3-3.1-2.5-4.7-3.6c-2.2-1.5-4.4-2.7-6.8-3.8c-2.3-1.1-4.8-2-7.2-2.6c-0.6-0.2-1.2-0.3-1.9-0.4
		l-0.9-0.2c-0.1,0-0.1,0-0.2,0l-0.9-0.1c-1.3-0.1-2.5-0.4-3.8-0.4l-1.8-0.1c-0.1,0-0.1,0-0.2,0l-1.8,0.1c-1.2,0-2.5,0.3-3.7,0.5
		c0,0-0.1,0-0.1,0c-2.4,0.6-4.9,1.3-7.1,2.4c-2.3,1.1-4.6,2.3-6.6,3.9l-1.6,1.2l-1.5,1.2c-0.5,0.5-1,0.9-1.6,1.4
		C48.9,118.2,47.8,118.1,47,117.4L47,117.4z"/>
	<path class="st2" d="M148,58.6c-1.4-3.7-7.3-16.5-15.7-16.1c-6.2,0.3-10.3,6.9-11.3,8.4c-5.3,8.2-3.5,15-8,17.4
		c-2.7,1.4-5.9,1.9-7.5-1c-2.6-4.9-0.4-12-0.6-26.5c-0.1-10.2-1.5-22.7-8.9-31.4c-3.7-4.4-10.6-7.9-16.9-9c-0.9-0.2-1.8-0.3-2.7-0.3
		c-0.2,0-0.4,0-0.6,0c-0.2,0-0.4,0-0.6,0c-0.9,0-1.9,0.1-2.7,0.3c-6.3,1-13.2,4.6-16.9,9c-7.4,8.7-9.2,20.1-9.3,30.3
		c-0.2,14.5,2.4,22.7-0.2,27.5c-1.5,2.9-4.8,2.5-7.5,1c-4.4-2.4-2.7-9.2-8-17.4c-1-1.5-5.1-8.2-11.3-8.4C11,42,5,54.9,3.7,58.6
		C-0.3,69.1-0.7,78.1,0.8,86c0.9,4.7,9,7.9,14.7,8.5l0.4-2.8l-6.8,45.2c-0.5,3.5,0.5,7,2.8,9.6c2.3,2.7,5.6,4.2,9.1,4.2h110.2
		c3.5,0,6.9-1.5,9.1-4.2c2.3-2.7,3.3-6.2,2.7-9.7l-6.9-42.3c5.7-0.7,13.7-3.9,14.7-8.5C152.4,78.1,151.9,69.1,148,58.6z M88.6,20.3
		c3.4-0.4,6.5,2.8,6.9,7.1c0.4,4.3-2,8.1-5.4,8.5s-6.5-2.8-6.9-7.1C82.9,24.5,85.3,20.7,88.6,20.3z M80.9,47.1
		c1.6-1.7,2-2.9,3.5-3.2c1.3-0.2,2.8,0.3,3.2,1.2c0.8,1.6-2,4.2-4.7,5.5c-3.2,1.5-7.3,1.5-7.6,0.7C75.1,50.7,78,50.2,80.9,47.1z
		 M56.1,27.4c0.4-4.3,3.5-7.5,6.9-7.1c3.4,0.4,5.8,4.2,5.4,8.5c-0.4,4.3-3.5,7.5-6.9,7.1C58.1,35.5,55.7,31.7,56.1,27.4z
		 M140.4,79.5c-1.7-0.2-3.4,0-4.9,0.7c-1.5,0.7-2.7,1.8-4,3.2c-0.3,0.3-0.7,0.7-1.2,1l-0.4,0.3c-0.1,0.1-0.3,0.2-0.5,0.3
		c-0.1,0.1-0.3,0.1-0.5,0.2c1.2,1.2,2,2.7,2.3,4.5l7.8,47.8c0.4,2.3-0.3,4.7-1.8,6.5s-3.7,2.8-6.1,2.8H21c-2.3,0-4.5-1-6.1-2.8
		c-1.5-1.8-2.2-4.1-1.8-6.4l7.2-47.8c0.3-1.8,1.1-3.3,2.3-4.5c0,0,0,0,0,0c-0.2,0-0.4,0-0.6-0.1c0,0-0.1,0-0.1,0
		c-0.2,0-0.3-0.1-0.4-0.1c0,0-0.1,0-0.1,0c-0.2-0.1-0.3-0.2-0.4-0.2l-0.3-0.2l-0.1-0.1c-0.2-0.2-0.4-0.4-0.6-0.5
		c-0.2-0.2-0.4-0.3-0.5-0.5c-1.3-1.3-2.5-2.5-4-3.2c-0.2-0.1-0.4-0.1-0.6-0.2c-0.2-0.1-0.5-0.2-0.7-0.3c-0.7-0.2-1.5-0.3-2.3-0.3
		c-0.4,0-0.9,0-1.3,0.1c-0.1,0-0.3,0.1-0.4,0.1c-1.4,0.2-2.7,0.7-4.1,1.2c-0.2,0.1-0.5,0.2-0.7,0.3c0,0,0,0,0,0c0,0,0,0,0,0
		c0.3-0.3,0.7-0.7,1.1-1c1.1-0.9,2.4-1.7,3.8-2.2c1-0.3,2-0.5,3-0.6c1.1,0,2.1,0.2,3.1,0.5c2,0.7,3.7,2.1,5.1,3.4c0,0,0.1,0,0.1,0.1
		c0.3,0.3,0.6,0.5,0.8,0.7c0,0,0,0,0,0c0.1-0.2,0.2-0.5,0.2-0.8c0,0,0-0.1,0-0.1c0.2-1.2,0.3-2.6,0.3-3.9c0-0.5,0-0.9,0-1.4
		c0-0.5,0-1,0-1.4c0-1.4-0.1-2.7-0.1-4.1c-0.1-3.3-0.3-6.5-0.4-9.8c0-0.5,0-1,0-1.4c0,0,0,0,0,0c0,0,0,0,0,0c1.1,3.6,1.9,7.3,2.6,11
		c0.1,0.7,0.2,1.5,0.3,2.2c0,0.2,0.1,0.4,0.1,0.6c0.1,0.9,0.2,1.9,0.3,2.8c0.1,1.7,0.2,3.4,0,5.2c0,0.2,0,0.5-0.1,0.7
		c0,0.3-0.1,0.5-0.2,0.8c-0.1,0.3-0.2,0.6-0.3,0.9c0,0,0,0,0,0c0,0.1-0.1,0.2-0.1,0.3c0,0,0,0,0,0c1-0.5,2.1-0.7,3.3-0.7h95.2
		c0.9,0,1.7,0.1,2.5,0.4c0,0,0,0,0,0c-0.2-0.6-0.4-1.2-0.4-1.7c-0.3-2.1-0.2-4-0.1-5.9c0.1-1,0.2-1.9,0.3-2.8
		c0.1-0.9,0.3-1.9,0.4-2.8c0.6-3.7,1.4-7.4,2.6-11c0,3.8-0.2,7.5-0.4,11.3c-0.1,1.9-0.1,3.7-0.2,5.5c0,1.8,0,3.7,0.3,5.3
		c0.1,0.3,0.1,0.7,0.2,0.9c0.3-0.2,0.6-0.5,0.9-0.8c1.3-1.3,3-2.7,5.1-3.4c1-0.3,2.1-0.5,3.1-0.5c1.1,0,2.1,0.2,3,0.6
		c1.9,0.7,3.5,1.8,4.9,3.2C143.9,80.4,142.2,79.7,140.4,79.5z"/>
</g>
</svg>
